<?xml version="1.0" encoding="UTF-8" standalone="no"?>
<!-- Created with Inkscape (http://www.inkscape.org/) -->

<svg
   version="1.1"
   id="svg1"
   width="2339.3999"
   height="866.98669"
   viewBox="0 0 2339.3999 866.98669"
   sodipodi:docname="UUK_White_RGB.eps"
   xmlns:inkscape="http://www.inkscape.org/namespaces/inkscape"
   xmlns:sodipodi="http://sodipodi.sourceforge.net/DTD/sodipodi-0.dtd"
   xmlns="http://www.w3.org/2000/svg"
   xmlns:svg="http://www.w3.org/2000/svg">
  <defs
     id="defs1" />
  <sodipodi:namedview
     id="namedview1"
     pagecolor="#ffffff"
     bordercolor="#000000"
     borderopacity="0.25"
     inkscape:showpageshadow="2"
     inkscape:pageopacity="0.0"
     inkscape:pagecheckerboard="0"
     inkscape:deskcolor="#d1d1d1">
    <inkscape:page
       x="0"
       y="0"
       inkscape:label="1"
       id="page1"
       width="2339.3999"
       height="866.98669"
       margin="0"
       bleed="0" />
  </sodipodi:namedview>
  <g
     id="g1"
     inkscape:groupmode="layer"
     inkscape:label="1">
    <g
       id="group-R5">
      <path
         id="path2"
         d="M 3207.03,2632.39 V 3828.42 H 1999.38 C 2271.05,3465.47 2432.09,3015.37 2432.09,2528.2 2432.09,1329.86 1457.18,354.98 258.879,354.98 171.223,354.98 85,360.723 0.03125,370.871 V 0.0117188 H 5289.29 V 2632.39 H 3207.03"
         style="fill:#ffffff;fill-opacity:1;fill-rule:nonzero;stroke:none"
         transform="matrix(0.13333333,0,0,-0.13333333,0,866.98667)" />
      <path
         id="path3"
         d="M 1953.11,4109.12 H 3488.03 V 2913.37 H 5289.26 V 5386.01 H 3465.83 V 6502.44 H 0 V 5540.93 H 1953.11 V 4109.12"
         style="fill:#ffffff;fill-opacity:1;fill-rule:nonzero;stroke:none"
         transform="matrix(0.13333333,0,0,-0.13333333,0,866.98667)" />
      <path
         id="path4"
         d="M 5289.28,6502.45 H 3746.7 v -835.5 h 1542.58 v 835.5"
         style="fill:#ffffff;fill-opacity:1;fill-rule:nonzero;stroke:none"
         transform="matrix(0.13333333,0,0,-0.13333333,0,866.98667)" />
      <path
         id="path5"
         d="m 698.789,1928.52 c 0,385.22 -313.359,698.86 -698.7772812,698.86 V 1229.73 C 385.43,1229.73 698.789,1543.14 698.789,1928.52"
         style="fill:#ffffff;fill-opacity:1;fill-rule:nonzero;stroke:none"
         transform="matrix(0.13333333,0,0,-0.13333333,0,866.98667)" />
      <path
         id="path6"
         d="M 1672.21,4177.19 V 5260.14 H 0.0195313 V 4685.61 C 84.9805,4695.8 171.316,4701.53 258.945,4701.53 c 539.231,0 1032.965,-197.93 1413.265,-524.34"
         style="fill:#ffffff;fill-opacity:1;fill-rule:nonzero;stroke:none"
         transform="matrix(0.13333333,0,0,-0.13333333,0,866.98667)" />
      <path
         id="path7"
         d="M 979.656,1928.47 C 979.656,1388.23 540.293,948.859 0.0703125,948.859 V 653.98 C 84.7461,642.242 170.996,635.871 258.816,635.871 c 1043.564,0 1892.564,848.899 1892.564,1892.379 0,1043.47 -849,1892.56 -1892.564,1892.56 -87.82,0 -174.0699,-6.65 -258.7456875,-18.23 V 2908.07 C 540.293,2908.07 979.656,2468.7 979.656,1928.47"
         style="fill:#ffffff;fill-opacity:1;fill-rule:nonzero;stroke:none"
         transform="matrix(0.13333333,0,0,-0.13333333,0,866.98667)" />
      <path
         id="path8"
         d="m 7143.07,5507.51 c 0,-76.1 -4.16,-133.74 -12.43,-171.28 -7.95,-36.41 -24.55,-71.23 -49.3,-103.47 -55.45,-71.86 -144.99,-108.27 -266.08,-108.27 -119.52,0 -208.2,36.38 -263.38,107.91 -23.43,32.32 -39.72,67.71 -48.47,105.23 -9.03,38.46 -13.62,95.61 -13.62,169.88 v 920.92 h -243.77 v -906.35 c 0,-101.61 8.68,-187.97 25.89,-256.65 17.36,-70.1 49.46,-133.78 95.26,-189.31 49.25,-58.94 111.13,-102.94 183.93,-130.81 72.25,-27.62 161.86,-41.63 266.5,-41.63 103.08,0 191.91,14.01 264.16,41.63 72.81,27.8 135.47,71.8 186.27,130.89 45.86,55.66 77.6,119.37 94.26,189.36 16.29,68.59 24.56,154.88 24.56,256.52 v 906.35 h -243.78 v -920.92"
         style="fill:#ffffff;fill-opacity:1;fill-rule:nonzero;stroke:none"
         transform="matrix(0.13333333,0,0,-0.13333333,0,866.98667)" />
      <path
         id="path9"
         d="m 7969.21,5564.27 c 7.33,35.63 23.43,73.98 47.84,113.94 24.41,39.66 56.58,73.99 95.6,101.99 38.1,27.42 81.57,41.31 129.12,41.31 73.16,0 124.81,-21.06 153.46,-62.62 29.78,-43.39 44.87,-107.91 44.87,-191.73 v -635.75 h 234.53 v 692.51 c 0,133.18 -31.95,234.96 -95.11,302.44 -63.56,67.77 -153.89,102.14 -268.4,102.14 -83.87,0 -157.55,-18.18 -218.85,-54.02 -49.12,-28.72 -91.31,-66.89 -125.74,-113.74 l -11.92,167.76 H 7734.9 V 4931.41 h 234.59 l -0.28,632.86"
         style="fill:#ffffff;fill-opacity:1;fill-rule:nonzero;stroke:none"
         transform="matrix(0.13333333,0,0,-0.13333333,0,866.98667)" />
      <path
         id="path10"
         d="m 9008.79,4931.41 h 234.59 V 6028.5 H 9008.79 V 4931.41"
         style="fill:#ffffff;fill-opacity:1;fill-rule:nonzero;stroke:none"
         transform="matrix(0.13333333,0,0,-0.13333333,0,866.98667)" />
      <path
         id="path11"
         d="m 9124.92,6502.45 c -42.26,0 -78.04,-14.29 -106.12,-42.4 -28.16,-28.09 -42.33,-63.82 -42.33,-106.19 0,-41.07 14.74,-75.71 43.82,-102.98 28.86,-27.16 64.84,-40.96 106.96,-40.96 42.19,0 77.82,13.84 105.97,41.1 28.23,27.35 42.48,62.73 42.48,105.17 0,42.58 -14.74,78 -43.82,105.3 -28.85,27.17 -64.84,40.96 -106.96,40.96"
         style="fill:#ffffff;fill-opacity:1;fill-rule:nonzero;stroke:none"
         transform="matrix(0.13333333,0,0,-0.13333333,0,866.98667)" />
      <path
         id="path12"
         d="m 9968.77,5195.9 -287.94,832.6 h -250.97 l 420.37,-1097.09 h 237.07 l 420.4,1097.09 h -251 l -287.93,-832.6"
         style="fill:#ffffff;fill-opacity:1;fill-rule:nonzero;stroke:none"
         transform="matrix(0.13333333,0,0,-0.13333333,0,866.98667)" />
      <path
         id="path13"
         d="m 10847.2,5596.12 c 5.6,43.26 17.8,84.88 36.3,123.83 20.4,43.04 51.1,79.3 91.2,107.73 39.7,28.16 89.5,42.41 147.7,42.41 58.3,0 106.9,-13.12 144.4,-39.02 37.5,-25.99 65.3,-61.13 82.7,-104.49 16,-40.08 24.9,-83.92 26.4,-130.46 z m 535,385.02 c -71.4,45.2 -156.5,68.13 -252.9,68.13 -97.7,0 -187.2,-23.22 -266.1,-69.01 -79.1,-45.82 -142,-112.71 -187.1,-198.83 -44.8,-85.68 -67.5,-187.89 -67.5,-303.81 0,-115.85 22.3,-217.66 66.3,-302.54 44.2,-85.38 106.5,-151.52 184.9,-196.61 78.1,-45.04 168.8,-67.88 269.5,-67.88 68.8,0 133.4,7.98 192.2,23.65 58.4,15.52 110,35.38 153.5,59.05 43.6,23.82 77.8,47.98 105.6,75.92 l 4,4.09 -98.9,156.88 -12.8,-12.77 c -10.2,-10.16 -29.1,-24.77 -54.6,-42.3 -25.8,-17.6 -62.3,-34.5 -108.6,-50.23 -46.2,-15.6 -98.2,-23.5 -154.9,-23.5 -63.4,0 -118.5,13.7 -163.7,40.72 -45.2,26.91 -80.6,66.1 -105.4,116.55 -23.3,47.21 -36,102.76 -37.7,165.21 h 758.2 v 90.77 c 0,103.44 -19.6,196.57 -58.1,276.79 -38.8,80.72 -94.7,144.58 -165.9,189.72"
         style="fill:#ffffff;fill-opacity:1;fill-rule:nonzero;stroke:none"
         transform="matrix(0.13333333,0,0,-0.13333333,0,866.98667)" />
      <path
         id="path14"
         d="m 12486.4,6016.14 c -24.5,8.18 -54.1,12.36 -87.7,12.36 -73.3,0 -140.9,-19.06 -200.7,-56.56 -45.7,-28.68 -83.3,-66.4 -111.9,-112.32 l -11.4,168.88 h -219.9 V 4931.41 h 234.6 l -0.1,597.54 c 8.8,51.79 26.7,98 53.2,137.42 26.6,39.58 56.4,70.45 88.5,91.78 23.2,15.49 46.6,26.6 69.7,32.92 23.4,6.42 47.8,9.66 72.6,9.66 15.7,0 30.2,-1.44 43.1,-4.3 12.9,-2.89 22.9,-5.68 30.1,-8.54 l 16.9,-6.7 33.7,225.15 -4.9,7.9 -5.8,1.9"
         style="fill:#ffffff;fill-opacity:1;fill-rule:nonzero;stroke:none"
         transform="matrix(0.13333333,0,0,-0.13333333,0,866.98667)" />
      <path
         id="path15"
         d="m 13215.1,5535.3 c -12.4,4.55 -55.5,19.83 -130.1,45.79 l -64.3,20.32 c -38.3,13.38 -67.3,24.07 -87.2,32.21 -18.2,7.59 -36.2,19.8 -53.2,36.27 -15.7,15.24 -23.4,33.87 -23.4,56.9 0,38.32 14.8,66.19 45.2,85.23 32.2,20.12 76.7,30.3 132.3,30.3 51.7,0 102.4,-10.09 150.6,-29.95 48.5,-20.11 91,-46.17 126.5,-77.54 l 12.4,-10.94 105.2,157.7 -1.2,9.38 -4.6,4.16 c -38.3,34.41 -93,65.55 -162.9,92.54 -70,27.09 -146,40.83 -226,40.83 -80.3,0 -151.5,-13.48 -211.6,-40.02 -60.7,-26.73 -108.6,-64.8 -142.4,-113.17 -34,-48.47 -51.1,-106.04 -51.1,-171.1 0,-84.49 25,-149.12 74.3,-192.01 47.3,-41.21 99.3,-73.1 154.8,-94.9 12.3,-4.56 55.4,-19.83 130,-45.76 l 64.4,-20.46 c 35.1,-11.85 62.8,-22.19 83.4,-31.01 19,-8.15 37.2,-21.38 54.2,-39.26 16,-16.83 23.8,-37.04 23.8,-61.81 0,-41.35 -16.3,-71.4 -49.8,-91.93 -35.2,-21.66 -85.2,-32.64 -148.5,-32.64 -57.4,0 -113.8,14.79 -167.6,44 -54.5,29.59 -98.6,64.17 -131.2,102.76 l -10.5,12.63 -131.1,-144.21 -0.1,-9.53 4.1,-4.84 c 47.5,-56.12 112.3,-102.59 192.5,-138.04 80,-35.52 162.2,-53.52 243.9,-53.52 138.8,0 247.8,35 324.2,104 69.1,63.36 104.1,145.14 104.1,243.03 0,127.35 -77,223.07 -229.1,284.59"
         style="fill:#ffffff;fill-opacity:1;fill-rule:nonzero;stroke:none"
         transform="matrix(0.13333333,0,0,-0.13333333,0,866.98667)" />
      <path
         id="path16"
         d="m 13692.8,4931.41 h 234.6 V 6028.5 h -234.6 V 4931.41"
         style="fill:#ffffff;fill-opacity:1;fill-rule:nonzero;stroke:none"
         transform="matrix(0.13333333,0,0,-0.13333333,0,866.98667)" />
      <path
         id="path17"
         d="m 13808.9,6502.45 c -42.2,0 -78,-14.29 -106.1,-42.4 -28.1,-28.09 -42.3,-63.82 -42.3,-106.19 0,-41.07 14.7,-75.71 43.8,-102.98 28.8,-27.16 64.8,-40.96 107,-40.96 42.1,0 77.8,13.84 105.9,41.1 28.3,27.35 42.5,62.73 42.5,105.17 0,42.58 -14.7,78 -43.8,105.3 -28.9,27.17 -64.9,40.96 -107,40.96"
         style="fill:#ffffff;fill-opacity:1;fill-rule:nonzero;stroke:none"
         transform="matrix(0.13333333,0,0,-0.13333333,0,866.98667)" />
      <path
         id="path18"
         d="m 14546.9,6319.79 h -215.1 l -20.7,-291.29 h -156 v -183.84 h 157.2 v -566.39 c 0,-72.15 5.2,-130.7 15.4,-174.13 10.6,-45.05 31.7,-83.65 62.6,-114.69 55.1,-56.9 133.2,-85.77 232.4,-85.77 35.8,0 73.5,3.14 112.1,9.32 38.7,6.25 69.5,13.36 97.2,23.1 l 5.6,1.98 -27.6,180.13 -16.7,-6.21 c -11.8,-4.41 -27.5,-8.39 -47.2,-12.06 -19.7,-3.67 -40.3,-5.51 -61,-5.51 -46.2,0 -81.4,13.98 -104.7,41.74 -10.7,12.02 -18.9,31.04 -24.5,56.54 -5.9,26.82 -9,63.44 -9,108.87 v 543.08 h 296 v 183.84 h -296 v 291.29"
         style="fill:#ffffff;fill-opacity:1;fill-rule:nonzero;stroke:none"
         transform="matrix(0.13333333,0,0,-0.13333333,0,866.98667)" />
      <path
         id="path19"
         d="m 15172.9,6502.45 c -42.3,0 -78,-14.29 -106.1,-42.4 -28.2,-28.09 -42.3,-63.82 -42.3,-106.19 0,-41.07 14.7,-75.71 43.8,-102.98 28.8,-27.16 64.8,-40.96 106.9,-40.96 42.2,0 77.9,13.84 106,41.1 28.2,27.35 42.5,62.73 42.5,105.17 0,42.58 -14.8,78 -43.8,105.3 -28.9,27.17 -64.9,40.96 -107,40.96"
         style="fill:#ffffff;fill-opacity:1;fill-rule:nonzero;stroke:none"
         transform="matrix(0.13333333,0,0,-0.13333333,0,866.98667)" />
      <path
         id="path20"
         d="m 15056.8,4931.41 h 234.6 V 6028.5 h -234.6 V 4931.41"
         style="fill:#ffffff;fill-opacity:1;fill-rule:nonzero;stroke:none"
         transform="matrix(0.13333333,0,0,-0.13333333,0,866.98667)" />
      <path
         id="path21"
         d="m 15790.1,5596.12 c 5.6,43.26 17.8,84.88 36.4,123.83 20.4,43.04 51,79.3 91.1,107.73 39.8,28.16 89.5,42.41 147.8,42.41 58.3,0 106.8,-13.12 144.3,-39.02 37.5,-25.99 65.4,-61.13 82.7,-104.49 16,-40.08 24.9,-83.92 26.5,-130.46 z m 535,385.02 c -71.4,45.2 -156.4,68.13 -252.8,68.13 -97.7,0 -187.3,-23.22 -266.1,-69.01 -79.1,-45.82 -142.1,-112.71 -187.2,-198.83 -44.8,-85.68 -67.4,-187.89 -67.4,-303.81 0,-115.85 22.3,-217.66 66.2,-302.54 44.3,-85.38 106.5,-151.52 184.9,-196.61 78.2,-45.04 168.8,-67.88 269.6,-67.88 68.7,0 133.4,7.98 192.1,23.65 58.4,15.52 110.1,35.38 153.5,59.05 43.7,23.82 77.8,47.98 105.6,75.92 l 4.1,4.09 -99,156.88 -12.7,-12.77 c -10.2,-10.16 -29.1,-24.77 -54.7,-42.3 -25.7,-17.6 -62.2,-34.5 -108.6,-50.23 -46.1,-15.6 -98.2,-23.5 -154.8,-23.5 -63.5,0 -118.6,13.7 -163.8,40.72 -45.2,26.91 -80.6,66.1 -105.3,116.55 -23.4,47.21 -36,102.76 -37.7,165.21 h 758.1 v 90.77 c 0,103.44 -19.5,196.57 -58.1,276.79 -38.8,80.72 -94.6,144.58 -165.9,189.72"
         style="fill:#ffffff;fill-opacity:1;fill-rule:nonzero;stroke:none"
         transform="matrix(0.13333333,0,0,-0.13333333,0,866.98667)" />
      <path
         id="path22"
         d="m 17316.4,5535.3 c -12.3,4.55 -55.5,19.83 -130,45.79 l -64.3,20.32 c -38.3,13.38 -67.3,24.07 -87.2,32.21 -18.3,7.59 -36.2,19.8 -53.3,36.27 -15.6,15.24 -23.3,33.87 -23.3,56.9 0,38.32 14.8,66.19 45.2,85.23 32.2,20.12 76.7,30.3 132.3,30.3 51.7,0 102.4,-10.09 150.6,-29.95 48.4,-20.11 91,-46.17 126.5,-77.54 l 12.4,-10.94 105.1,157.7 -1.1,9.38 -4.7,4.16 c -38.2,34.41 -93,65.55 -162.8,92.54 -70,27.09 -146.1,40.83 -226,40.83 -80.3,0 -151.5,-13.48 -211.6,-40.02 -60.8,-26.73 -108.7,-64.8 -142.5,-113.17 -33.9,-48.47 -51.1,-106.04 -51.1,-171.1 0,-84.49 25,-149.12 74.3,-192.01 47.4,-41.21 99.4,-73.1 154.9,-94.9 12.3,-4.56 55.4,-19.83 130,-45.76 l 64.4,-20.46 c 35.1,-11.85 62.8,-22.19 83.3,-31.01 19,-8.15 37.2,-21.38 54.3,-39.26 15.9,-16.83 23.8,-37.04 23.8,-61.81 0,-41.35 -16.3,-71.4 -49.8,-91.93 -35.3,-21.66 -85.2,-32.64 -148.5,-32.64 -57.4,0 -113.8,14.79 -167.6,44 -54.6,29.59 -98.7,64.17 -131.2,102.76 l -10.6,12.63 -131,-144.21 -0.2,-9.53 4.1,-4.84 c 47.6,-56.12 112.4,-102.59 192.5,-138.04 80.1,-35.52 162.2,-53.52 244,-53.52 138.8,0 247.8,35 324.1,104 69.1,63.36 104.1,145.14 104.1,243.03 0,127.35 -77,223.07 -229.1,284.59"
         style="fill:#ffffff;fill-opacity:1;fill-rule:nonzero;stroke:none"
         transform="matrix(0.13333333,0,0,-0.13333333,0,866.98667)" />
      <path
         id="path23"
         d="m 7143.07,3112.83 c 0,-76.09 -4.16,-133.74 -12.43,-171.28 -7.95,-36.41 -24.55,-71.22 -49.3,-103.47 -55.45,-71.86 -144.99,-108.27 -266.08,-108.27 -119.52,0 -208.2,36.38 -263.38,107.92 -23.43,32.32 -39.72,67.7 -48.47,105.24 -9.03,38.44 -13.62,95.6 -13.62,169.86 v 920.93 H 6246.02 V 3127.4 c 0,-101.6 8.68,-187.96 25.89,-256.65 17.36,-70.1 49.46,-133.77 95.26,-189.3 49.25,-58.95 111.13,-102.95 183.93,-130.82 72.25,-27.61 161.86,-41.62 266.5,-41.62 103.08,0 191.91,14.01 264.16,41.62 72.81,27.81 135.47,71.8 186.27,130.89 45.86,55.67 77.6,119.39 94.26,189.38 16.29,68.57 24.56,154.86 24.56,256.5 v 906.36 h -243.78 v -920.93"
         style="fill:#ffffff;fill-opacity:1;fill-rule:nonzero;stroke:none"
         transform="matrix(0.13333333,0,0,-0.13333333,0,866.98667)" />
      <path
         id="path24"
         d="m 8870.99,4033.9 -297.89,-5.07 -573.55,-655.4 v 660.33 H 7758.04 V 2536.74 h 241.59 l -3.9,529.49 156.15,168.94 452.83,-698.43 h 278.7 l -572.56,879.98 560.14,617.18"
         style="fill:#ffffff;fill-opacity:1;fill-rule:nonzero;stroke:none"
         transform="matrix(0.13333333,0,0,-0.13333333,0,866.98667)" />
    </g>
  </g>
</svg>
